<svg xmlns="http://www.w3.org/2000/svg" xmlns:xlink="http://www.w3.org/1999/xlink" width="1440" height="720" viewBox="0 0 1440 720">
    <defs>
        <linearGradient id="b" x1="100%" x2="0%" y1="0%" y2="100%">
            <stop offset="0%" stop-color="#703BEE"/>
            <stop offset="100%" stop-color="#1156CC"/>
        </linearGradient>
        <path id="a" d="M0 0h1440v720H0z"/>
    </defs>
    <g fill="none" fill-rule="evenodd">
        <mask id="c" fill="#fff">
            <use xlink:href="#a"/>
        </mask>
        <use fill="url(#b)" style="mix-blend-mode:hard-light" xlink:href="#a"/>
        <path fill="#006CFF" fill-opacity=".3" d="M447 397v288h206v-82.287H529.401V479.287H653V397z" mask="url(#c)" style="mix-blend-mode:multiply"/>
        <path fill="#006CFF" fill-opacity=".4" d="M38.002 153.498c-24.025 0-43.505-19.475-43.505-43.5 0-24.024 19.48-43.496 43.505-43.496 24.021 0 43.5 19.472 43.5 43.496 0 24.025-19.479 43.5-43.5 43.5m0-188.498C-42.082-35-107 29.92-107 109.998-107 190.08-42.082 255 38.002 255 118.082 255 183 190.08 183 109.998 183 29.92 118.082-35 38.002-35M848.002 368.498c-24.025 0-43.505-19.475-43.505-43.5 0-24.024 19.48-43.496 43.505-43.496 24.021 0 43.5 19.472 43.5 43.496 0 24.025-19.479 43.5-43.5 43.5m0-188.498C767.918 180 703 244.92 703 324.998 703 405.08 767.918 470 848.002 470 928.082 470 993 405.08 993 324.998 993 244.92 928.082 180 848.002 180M1372.817 72v52.5h-52.634V72H1250v245h193V72h-70.183zM1320 247h52v-52h-52v52z" mask="url(#c)" style="mix-blend-mode:multiply"/>
        <path fill="#006CFF" fill-opacity=".4" d="M1283 562v160h80.001v-80.001H1443V562z" mask="url(#c)" style="mix-blend-mode:multiply" transform="rotate(-180 1363 642)"/>
    </g>
</svg>
