<svg xmlns="http://www.w3.org/2000/svg" xmlns:xlink="http://www.w3.org/1999/xlink" width="1120" height="560" viewBox="0 0 1120 560">
    <defs>
        <linearGradient id="b" x1="100%" x2="0%" y1="37.5%" y2="62.5%">
            <stop offset="0%" stop-color="#703BEE"/>
            <stop offset="100%" stop-color="#1156CC"/>
        </linearGradient>
        <path id="a" d="M0 0h1120v560H0z"/>
    </defs>
    <g fill="none" fill-rule="evenodd">
        <mask id="c" fill="#fff">
            <use xlink:href="#a"/>
        </mask>
        <use fill="url(#b)" style="mix-blend-mode:hard-light" xlink:href="#a"/>
        <path fill="#006CFF" fill-opacity=".3" d="M347.667 308.778v224h160.222v-64h-96.133v-96h96.133v-64z" mask="url(#c)" style="mix-blend-mode:multiply"/>
        <path fill="#006CFF" fill-opacity=".4" d="M29.557 119.387c-18.686 0-33.837-15.147-33.837-33.833s15.15-33.83 33.837-33.83c18.683 0 33.834 15.144 33.834 33.83s-15.15 33.833-33.834 33.833m0-146.61c-62.287 0-112.78 50.494-112.78 112.777 0 62.286 50.493 112.78 112.78 112.78 62.285 0 112.776-50.494 112.776-112.78 0-62.283-50.491-112.776-112.776-112.776M659.557 286.61c-18.686 0-33.837-15.148-33.837-33.834 0-18.685 15.15-33.83 33.837-33.83 18.683 0 33.834 15.145 33.834 33.83 0 18.686-15.15 33.834-33.834 33.834m0-146.61c-62.287 0-112.78 50.493-112.78 112.776 0 62.286 50.493 112.78 112.78 112.78 62.285 0 112.776-50.494 112.776-112.78 0-62.283-50.491-112.776-112.776-112.776M1067.747 56v40.834h-40.938V56h-54.587v190.556h150.111V56h-54.586zm-41.08 136.111h40.444v-40.444h-40.444v40.444z" mask="url(#c)" style="mix-blend-mode:multiply"/>
        <path fill="#006CFF" fill-opacity=".4" d="M997.889 437.111v124.445h62.223v-62.224h62.221v-62.22z" mask="url(#c)" style="mix-blend-mode:multiply" transform="rotate(-180 1060.111 499.333)"/>
    </g>
</svg>
