<svg width="904" height="780" viewBox="0 0 904 780" fill="none" xmlns="http://www.w3.org/2000/svg">
<mask id="mask0" mask-type="alpha" maskUnits="userSpaceOnUse" x="0" y="0" width="904" height="780">
<path d="M0 0H904V780H0V0Z" fill="white"/>
</mask>
<g mask="url(#mask0)">
<path d="M0 0H904V780H0V0Z" fill="url(#paint0_linear)" style="mix-blend-mode:hard-light"/>
<g style="mix-blend-mode:multiply">
<path fill-rule="evenodd" clip-rule="evenodd" d="M-723.998 188.498C-748.023 188.498 -767.503 169.023 -767.503 144.998C-767.503 120.974 -748.023 101.502 -723.998 101.502C-699.977 101.502 -680.498 120.974 -680.498 144.998C-680.498 169.023 -699.977 188.498 -723.998 188.498ZM-723.998 0C-804.082 0 -869 64.92 -869 144.998C-869 225.08 -804.082 290 -723.998 290C-643.918 290 -579 225.08 -579 144.998C-579 64.92 -643.918 0 -723.998 0ZM86.002 373.498C61.977 373.498 42.497 354.023 42.497 329.998C42.497 305.974 61.977 286.502 86.002 286.502C110.023 286.502 129.502 305.974 129.502 329.998C129.502 354.023 110.023 373.498 86.002 373.498V373.498ZM86.002 185C5.91801 185 -59 249.92 -59 329.998C-59 410.08 5.91801 475 86.002 475C166.082 475 231 410.08 231 329.998C231 249.92 166.082 185 86.002 185V185ZM833.817 77V129.5H781.183V77H711V322H904V77H833.817ZM781 252H833V200H781V252Z" fill="#006CFF" fill-opacity="0.4"/>
</g>
<g style="mix-blend-mode:multiply">
<path fill-rule="evenodd" clip-rule="evenodd" d="M904 727V567H823.999V647.001H744V727H904Z" fill="#006CFF" fill-opacity="0.4"/>
</g>
</g>
<defs>
<linearGradient id="paint0_linear" x1="904" y1="99.6528" x2="98.5787" y2="794.597" gradientUnits="userSpaceOnUse">
<stop stop-color="#703BEE"/>
<stop offset="1" stop-color="#1156CC"/>
</linearGradient>
</defs>
</svg>
