<svg width="670" height="925" viewBox="0 0 670 925" fill="none" xmlns="http://www.w3.org/2000/svg">
<mask id="mask0" mask-type="alpha" maskUnits="userSpaceOnUse" x="0" y="0" width="670" height="925">
<path d="M0 0H670V925H0V0Z" fill="white"/>
</mask>
<g mask="url(#mask0)">
<path d="M0 0H670V925H0V0Z" fill="url(#paint0_linear)" style="mix-blend-mode:hard-light"/>
<g style="mix-blend-mode:multiply">
<path fill-rule="evenodd" clip-rule="evenodd" d="M86.002 403.498C61.977 403.498 42.497 384.023 42.497 359.998C42.497 335.974 61.977 316.502 86.002 316.502C110.023 316.502 129.502 335.974 129.502 359.998C129.502 384.023 110.023 403.498 86.002 403.498V403.498ZM86.002 215C5.918 215 -59 279.92 -59 359.998C-59 440.08 5.918 505 86.002 505C166.082 505 231 440.08 231 359.998C231 279.92 166.082 215 86.002 215V215ZM610.817 107V159.5H558.183V107H488V352H681V107H610.817ZM558 282H610V230H558V282Z" fill="#006CFF" fill-opacity="0.4"/>
</g>
<g style="mix-blend-mode:multiply">
<path fill-rule="evenodd" clip-rule="evenodd" d="M681 757V597H600.999V677.001H521V757H681Z" fill="#006CFF" fill-opacity="0.4"/>
</g>
</g>
<defs>
<linearGradient id="paint0_linear" x1="510.754" y1="-3.07027e-05" x2="-49.6464" y2="773.696" gradientUnits="userSpaceOnUse">
<stop stop-color="#703BEE"/>
<stop offset="1" stop-color="#1156CC"/>
</linearGradient>
</defs>
</svg>
