<svg xmlns="http://www.w3.org/2000/svg" xmlns:xlink="http://www.w3.org/1999/xlink" width="213" height="47" viewBox="0 0 213 47">
    <defs>
        <path id="a" d="M.073.018h17.97v17.676H.072z"/>
    </defs>
    <g fill="none" fill-rule="evenodd">
        <path fill="#FFF" d="M0 0v31.636h22.91v-9.038H9.163V9.038h13.745V0zM29.455 0v17.455h8.727V8.727h8.727V0zM87.273 0v17.455H96V8.727h8.727V0zM71.603 0v6.78H64.76V0h-9.124v31.636h25.091V0h-9.124zM64.76 22.598h6.843v-6.78H64.76v6.78zM98.548 38.395c-2.047 0-3.706-1.632-3.706-3.646 0-2.013 1.659-3.646 3.706-3.646 2.047 0 3.706 1.633 3.706 3.646 0 2.014-1.66 3.646-3.706 3.646m0-15.798c-6.823 0-12.354 5.44-12.354 12.152 0 6.712 5.53 12.153 12.354 12.153 6.823 0 12.354-5.441 12.354-12.153 0-6.711-5.531-12.152-12.354-12.152"/>
        <g transform="translate(194.424 29.215)">
            <mask id="b" fill="#fff">
                <use xlink:href="#a"/>
            </mask>
            <path fill="#FFF" d="M9.058.018v8.838H.073v8.838h17.97V.018z" mask="url(#b)"/>
        </g>
        <path fill="#FFF" d="M132.814 18.87c.684 0 1.336-.05 1.955-.148a5.473 5.473 0 0 0 1.657-.521c.485-.25.872-.592 1.16-1.027.286-.434.43-1 .43-1.695 0-.673-.144-1.222-.43-1.646a2.97 2.97 0 0 0-1.144-.994 4.977 4.977 0 0 0-1.623-.472 15.131 15.131 0 0 0-1.873-.114h-3.048v6.616h2.916zm-7.091-10.072h7.654c1.347 0 2.562.12 3.645.358 1.082.24 2.01.63 2.783 1.173a5.493 5.493 0 0 1 1.79 2.087c.42.847.63 1.868.63 3.063 0 1.283-.244 2.358-.73 3.227a5.856 5.856 0 0 1-1.971 2.103c-.829.532-1.795.918-2.9 1.157a16.56 16.56 0 0 1-3.512.358h-3.214v9.55h-4.175V8.798zM157.102 23.074l-3.612-9.387-3.678 9.387h7.29zM151.8 8.798h3.612l10.106 23.076h-4.771l-2.187-5.28h-10.173l-2.12 5.28h-4.673L151.8 8.798zM172.013 21.868l-8.815-13.07h5.103l5.899 9.713 5.964-9.713h4.838l-8.815 13.07v10.006h-4.174z"/>
    </g>
</svg>
