<svg width="720" height="684" viewBox="0 0 720 684" fill="none" xmlns="http://www.w3.org/2000/svg">
<mask id="mask0" mask-type="alpha" maskUnits="userSpaceOnUse" x="0" y="0" width="720" height="684">
<path d="M0 0H720V684H0V0Z" fill="white"/>
</mask>
<g mask="url(#mask0)">
<path d="M0 0H720V684H0V0Z" fill="#222222"/>
<path opacity="0.264" fill-rule="evenodd" clip-rule="evenodd" d="M420.469 31.796L342.831 -45.842L303.586 -6.59698L303.136 -7.04798L225.707 70.38L342.38 187.052L420.399 109.034L381.37 70.895L420.469 31.796V31.796ZM342.379 31.396L381.813 70.83L342.39 109.373L303.397 70.38L342.38 31.397L342.379 31.396ZM534.665 608.016L624.057 697.408L713.45 608.015L713.182 607.747L758.14 562.789L624.057 428.707L534.665 518.1L579.623 563.057L534.665 608.015V608.016ZM578.576 563.057L624.057 517.577L669.538 563.057L624.058 608.538L578.576 563.058V563.057ZM-25.279 445.737L-69.799 490.258L19.765 579.822L109.328 490.258L64.808 445.738L19.765 490.781L-25.279 445.738V445.737ZM64.808 443.791L109.328 399.271L19.765 309.707L-69.799 399.271L-25.279 443.791L19.765 398.748L64.808 443.791V443.791Z" stroke="white"/>
<path opacity="0.353" fill-rule="evenodd" clip-rule="evenodd" d="M665.497 280.55H737.55V206.514H665.497V133.484H736.544V60.45H665.497V133.482H594.45V206.515H665.497V280.55V280.55Z" stroke="#EFEFEF" stroke-width="0.9"/>
<path opacity="0.337" fill-rule="evenodd" clip-rule="evenodd" d="M-11.815 0.450012H-86.55V75.15H-11.92V149.85H62.815V224.55H137.55V149.85H62.816V75.15H-11.815V0.450012V0.450012Z" stroke="#EFEFEF" stroke-width="0.9"/>
<path opacity="0.335" fill-rule="evenodd" clip-rule="evenodd" d="M312.85 571.15H386.55V497.45H312.85V571.15V571.15ZM312.85 571.15H239.15V644.85H312.85V571.15V571.15ZM239.15 644.85H165.45V718.55H239.15V644.85Z" stroke="#EFEFEF" stroke-width="0.9"/>
</g>
</svg>
