<svg xmlns="http://www.w3.org/2000/svg" xmlns:xlink="http://www.w3.org/1999/xlink" width="218" height="47" viewBox="0 0 218 47">
    <defs>
        <path id="a" d="M.072.018h17.871V17.82H.073z"/>
    </defs>
    <g fill="none" fill-rule="evenodd">
        <path fill="#326CF9" d="M0 0v31.418h23.564v-8.976H9.425V8.976h14.139V0zM29.673 0v17.455H38.4V8.727h8.727V0zM87.273 0v17.455H96V8.727h8.727V0zM71.405 0v6.733h-6.664V0h-8.886v31.418H80.29V0h-8.886zm-6.664 22.442h6.664v-6.733h-6.664v6.733zM97.826 38.358a3.679 3.679 0 0 1-3.686-3.672 3.679 3.679 0 0 1 3.686-3.671 3.679 3.679 0 0 1 3.685 3.671 3.679 3.679 0 0 1-3.685 3.672m0-15.91c-6.786 0-12.287 5.48-12.287 12.238 0 6.76 5.5 12.24 12.287 12.24 6.785 0 12.286-5.48 12.286-12.24 0-6.759-5.5-12.238-12.286-12.238"/>
        <path fill="#141414" d="M131.912 18.694c.681 0 1.33-.05 1.944-.148a5.392 5.392 0 0 0 1.648-.526 3.005 3.005 0 0 0 1.153-1.034c.286-.437.429-1.006.429-1.707 0-.678-.143-1.23-.429-1.657a2.963 2.963 0 0 0-1.136-1.001 4.902 4.902 0 0 0-1.615-.476 14.866 14.866 0 0 0-1.862-.115h-3.032v6.664h2.9zM124.86 8.55h7.612c1.34 0 2.549.12 3.626.362 1.076.24 1.998.634 2.767 1.18a5.508 5.508 0 0 1 1.78 2.102c.417.853.626 1.882.626 3.085 0 1.292-.242 2.375-.725 3.25a5.872 5.872 0 0 1-1.96 2.118c-.824.536-1.786.924-2.884 1.165a16.27 16.27 0 0 1-3.493.361h-3.197v9.618h-4.152V8.551zM153.002 18.562c.593 0 1.187-.043 1.78-.131a5.142 5.142 0 0 0 1.598-.492 3.12 3.12 0 0 0 1.17-1.035c.307-.448.461-1.022.461-1.723 0-.634-.143-1.154-.428-1.56a3.188 3.188 0 0 0-1.088-.967 4.57 4.57 0 0 0-1.499-.493 10.607 10.607 0 0 0-1.631-.131h-3.757v6.532h3.394zM145.456 8.55h8.106c1.099 0 2.164.115 3.197.345 1.032.23 1.95.607 2.751 1.132a5.924 5.924 0 0 1 1.928 2.068c.483.854.725 1.894.725 3.119 0 1.685-.478 3.058-1.433 4.12-.956 1.061-2.257 1.778-3.905 2.15l6.228 10.307h-5.01l-5.403-9.848h-3.032v9.848h-4.152V8.55zM170.072 20.105c0 1.247.192 2.39.577 3.43a7.98 7.98 0 0 0 1.647 2.708 7.558 7.558 0 0 0 2.538 1.79c.977.426 2.06.64 3.246.64s2.274-.214 3.262-.64a7.527 7.527 0 0 0 2.554-1.79 7.994 7.994 0 0 0 1.648-2.708c.384-1.04.577-2.183.577-3.43 0-1.203-.193-2.32-.577-3.348a8.172 8.172 0 0 0-1.631-2.692 7.556 7.556 0 0 0-2.538-1.805c-.988-.438-2.087-.657-3.295-.657-1.209 0-2.302.22-3.28.657a7.59 7.59 0 0 0-2.52 1.805 8.156 8.156 0 0 0-1.631 2.692c-.385 1.029-.577 2.145-.577 3.348m-4.514 0c0-1.86.312-3.54.939-5.039.626-1.498 1.493-2.774 2.603-3.824 1.11-1.05 2.427-1.86 3.954-2.43 1.527-.568 3.191-.853 4.993-.853 1.823 0 3.504.285 5.042.854 1.537.57 2.867 1.379 3.987 2.429 1.12 1.05 1.994 2.326 2.62 3.824.626 1.5.94 3.18.94 5.039 0 1.817-.314 3.474-.94 4.973-.626 1.5-1.5 2.79-2.62 3.874-1.12 1.083-2.45 1.925-3.987 2.527-1.538.602-3.219.903-5.042.903-1.802 0-3.466-.301-4.993-.903-1.527-.602-2.845-1.444-3.954-2.527-1.11-1.084-1.977-2.375-2.603-3.874-.627-1.499-.94-3.156-.94-4.973"/>
        <g transform="translate(199.14 29.113)">
            <mask id="b" fill="#fff">
                <use xlink:href="#a"/>
            </mask>
            <path fill="#326CF9" d="M9.008.018v8.9H.072v8.902h17.872V.018z" mask="url(#b)"/>
        </g>
    </g>
</svg>
