<svg xmlns="http://www.w3.org/2000/svg" xmlns:xlink="http://www.w3.org/1999/xlink" width="237" height="48" viewBox="0 0 237 48">
    <defs>
        <path id="a" d="M.131.22H17.99v17.858H.13z"/>
        <path id="c" d="M0 47.377h236.17V.492H0z"/>
    </defs>
    <g fill="none" fill-rule="evenodd">
        <path fill="#326CF9" d="M0 .623v31.252h22.322v-8.93H8.929V9.553h13.393V.623zM29.02.623v17.859h8.928v-8.93h8.929V.623zM87.058.623v17.859h8.929v-8.93h8.929V.623zM71.432.623V7.32h-6.696V.623h-8.93v31.252H80.36V.623h-8.929zm-6.696 22.323h6.696v-6.697h-6.696v6.697z"/>
        <g transform="translate(0 .132)">
            <path fill="#326CF9" d="M98.219 38.775a3.683 3.683 0 1 1 0-7.367 3.683 3.683 0 0 1 0 7.367m0-15.96c-6.78 0-12.277 5.496-12.277 12.276 0 6.782 5.497 12.279 12.277 12.279 6.78 0 12.277-5.497 12.277-12.279 0-6.78-5.497-12.277-12.277-12.277"/>
            <g transform="translate(218.182 29.299)">
                <mask id="b" fill="#fff">
                    <use xlink:href="#a"/>
                </mask>
                <path fill="#326CF9" d="M9.06.22v8.929H.13v8.929H17.99V.22z" mask="url(#b)"/>
            </g>
            <path fill="#000" d="M151.065 16.78h-3.676v7.013h-2.748V8.364h2.748v6.004h3.676v2.412zm-6.284 12.37c0-1.374-1.963-2.749-5.077-2.749s-5.077 1.375-5.077 2.75v.785c0 1.374 1.963 2.749 5.077 2.749s5.077-1.375 5.077-2.75v-.785zm-12.875-.168c0-2.721 2.917-4.852 7.798-4.852 4.88 0 7.798 2.131 7.798 4.852v1.122c0 2.721-2.917 4.853-7.798 4.853s-7.798-2.132-7.798-4.853v-1.122zm-.954-9.34h6.648v-3.507h-6.648v3.506zm-2.72 2.356V9.627h2.72v4.18h6.648v-4.18h2.722v12.37h-12.09z"/>
            <path stroke="#000" stroke-width=".5" d="M151.065 16.78h-3.676v7.013h-2.748V8.364h2.748v6.004h3.676v2.412zm-6.284 12.37c0-1.374-1.963-2.749-5.077-2.749s-5.077 1.375-5.077 2.75v.785c0 1.374 1.963 2.749 5.077 2.749s5.077-1.375 5.077-2.75v-.785zm-12.875-.168c0-2.721 2.917-4.852 7.798-4.852 4.88 0 7.798 2.131 7.798 4.852v1.122c0 2.721-2.917 4.853-7.798 4.853s-7.798-2.132-7.798-4.853v-1.122zm-.954-9.34h6.648v-3.507h-6.648v3.506zm-2.72 2.356V9.627h2.72v4.18h6.648v-4.18h2.722v12.37h-12.09z"/>
            <path fill="#000" d="M164.39 16.135h-.029c-.308.645-1.262 1.346-3.113 2.272-1.515.757-3.423 1.683-5.751 2.58l-1.094-2.271c2.076-.786 4.152-1.712 5.947-2.693 2.272-1.235 2.609-2.441 2.637-3.816h-7.434V9.851h17.672v2.356h-7.462c.03 1.375.337 2.581 2.61 3.816 1.795.981 3.871 1.907 5.946 2.693l-1.066 2.244c-2.328-.898-4.235-1.824-5.75-2.581-1.852-.926-2.777-1.6-3.114-2.244zm-1.431 18.093v-8.865h-10.464v-2.356h23.732v2.356h-10.464v8.865h-2.804z"/>
            <path stroke="#000" stroke-width=".5" d="M164.39 16.135h-.029c-.308.645-1.262 1.346-3.113 2.272-1.515.757-3.423 1.683-5.751 2.58l-1.094-2.271c2.076-.786 4.152-1.712 5.947-2.693 2.272-1.235 2.609-2.441 2.637-3.816h-7.434V9.851h17.672v2.356h-7.462c.03 1.375.337 2.581 2.61 3.816 1.795.981 3.871 1.907 5.946 2.693l-1.066 2.244c-2.328-.898-4.235-1.824-5.75-2.581-1.852-.926-2.777-1.6-3.114-2.244zm-1.431 18.093v-8.865h-10.464v-2.356h23.732v2.356h-10.464v8.865h-2.804z"/>
            <mask id="d" fill="#fff">
                <use xlink:href="#c"/>
            </mask>
            <path fill="#000" d="M196.705 26.822h2.749V8.364h-2.749v18.458zm-10.631 4.713h13.913v2.412h-16.69v-8.584h2.777v6.172zm3.338-16.101c0-1.712-1.122-3.62-3.815-3.62-2.693 0-3.815 1.908-3.815 3.62v1.234c0 1.711 1.15 3.618 3.815 3.618 2.693 0 3.815-1.907 3.815-3.618v-1.234zm-10.295-.113c0-2.552 2.104-5.919 6.48-5.919s6.48 3.367 6.48 5.92v1.458c0 2.553-2.104 5.919-6.48 5.919s-6.48-3.366-6.48-5.919v-1.459z" mask="url(#d)"/>
            <path stroke="#000" stroke-width=".5" d="M196.705 26.822h2.749V8.364h-2.749v18.458zm-10.631 4.713h13.913v2.412h-16.69v-8.584h2.777v6.172zm3.338-16.101c0-1.712-1.122-3.62-3.815-3.62-2.693 0-3.815 1.908-3.815 3.62v1.234c0 1.711 1.15 3.618 3.815 3.618 2.693 0 3.815-1.907 3.815-3.618v-1.234zm-10.295-.113c0-2.552 2.104-5.919 6.48-5.919s6.48 3.367 6.48 5.92v1.458c0 2.553-2.104 5.919-6.48 5.919s-6.48-3.366-6.48-5.919v-1.459z" mask="url(#d)"/>
        </g>
    </g>
</svg>
