<svg xmlns="http://www.w3.org/2000/svg" xmlns:xlink="http://www.w3.org/1999/xlink" width="720" height="684" viewBox="0 0 720 684">
    <defs>
        <path id="a" d="M0 0h720v684H0z"/>
    </defs>
    <g fill="none" fill-rule="evenodd">
        <mask id="b" fill="#fff">
            <use xlink:href="#a"/>
        </mask>
        <use fill="#222" xlink:href="#a"/>
        <path fill="none" stroke="#FFF" d="M420.469 31.796l-77.638-77.638-39.245 39.245-.45-.451-77.429 77.428L342.38 187.052l78.019-78.018-39.029-38.139 39.099-39.099zm-78.09-.4l39.434 39.434-39.423 38.543-38.993-38.993 38.983-38.983zm192.286 576.62l89.392 89.392 89.393-89.393-.268-.268 44.958-44.958-134.083-134.082-89.392 89.393 44.958 44.957-44.958 44.958zm43.911-44.959l45.481-45.48 45.481 45.48-45.48 45.481-45.482-45.48zm-603.855-117.32l-44.52 44.521 89.564 89.564 89.563-89.564-44.52-44.52-45.043 45.043-45.044-45.043zm90.087-1.946l44.52-44.52-89.563-89.564-89.564 89.564 44.52 44.52 45.044-45.043 45.043 45.043z" mask="url(#b)" opacity=".264"/>
        <path fill="none" stroke="#EFEFEF" stroke-width=".9" d="M665.497 280.55h72.053v-74.036h-72.053v-73.03h71.047V60.45h-71.047v73.032H594.45v73.033h71.047v74.035z" mask="url(#b)" opacity=".353"/>
        <path fill="none" stroke="#EFEFEF" stroke-width=".9" d="M-11.815.45H-86.55v74.7h74.63v74.7h74.735v74.7h74.735v-74.7H62.816v-74.7h-74.631V.45z" mask="url(#b)" opacity=".337"/>
        <path fill="none" stroke="#EFEFEF" stroke-width=".9" d="M239.15 571.15v-73.7h-73.7v73.7h73.7zm0 0v73.7h73.7v-73.7h-73.7zm73.7 73.7v73.7h73.7v-73.7h-73.7z" mask="url(#b)" opacity=".335" transform="rotate(90 276 608)"/>
    </g>
</svg>
