<svg xmlns="http://www.w3.org/2000/svg" width="129" height="42" viewBox="0 0 129 42">
    <g fill="none" fill-rule="evenodd">
        <path fill="none" stroke="#000" d="M.5.5h128v41H.5z" opacity=".4"/>
        <path fill="#000" d="M49.147 26.536h-2.196l-1.202-3.629h-4.181l-1.146 3.63h-2.138l4.142-12.356h2.559l4.162 12.355zm-3.761-5.151h-3.455L43 18.158a86.9 86.9 0 0 0 .61-2.327h.04c.317 1.222.533 1.998.648 2.327l1.088 3.227zm14.414.587c0 1.516-.426 2.713-1.28 3.592-.763.783-1.712 1.174-2.844 1.174-1.222 0-2.1-.422-2.635-1.265h-.039v4.694h-2.061V20.56c0-.952-.026-1.93-.076-2.933h1.813l.115 1.412h.038c.688-1.064 1.731-1.595 3.131-1.595 1.095 0 2.009.415 2.74 1.246.733.832 1.098 1.926 1.098 3.282zm-2.1.073c0-.867-.203-1.582-.611-2.145-.446-.587-1.045-.88-1.795-.88-.508 0-.97.163-1.384.486a2.24 2.24 0 0 0-.81 1.274 2.496 2.496 0 0 0-.097.604v1.485c0 .648.207 1.195.621 1.642.414.446.952.669 1.613.669.777 0 1.38-.288 1.813-.862.433-.574.65-1.332.65-2.273zm12.772-.073c0 1.516-.426 2.713-1.28 3.592-.763.783-1.712 1.174-2.844 1.174-1.222 0-2.1-.422-2.634-1.265h-.039v4.694h-2.061V20.56c0-.952-.026-1.93-.076-2.933h1.813l.115 1.412h.038c.687-1.064 1.73-1.595 3.131-1.595 1.094 0 2.008.415 2.74 1.246.73.832 1.097 1.926 1.097 3.282zm-2.1.073c0-.867-.204-1.582-.612-2.145-.446-.587-1.043-.88-1.794-.88a2.2 2.2 0 0 0-1.385.486c-.413.324-.683.749-.81 1.274a2.545 2.545 0 0 0-.096.604v1.485c0 .648.207 1.195.62 1.642.413.445.95.669 1.614.669.777 0 1.38-.288 1.813-.862.433-.574.65-1.332.65-2.273zm14.032 1.027c0 1.05-.38 1.906-1.143 2.566-.838.721-2.005 1.081-3.505 1.081-1.385 0-2.495-.256-3.335-.77l.478-1.65c.905.526 1.898.79 2.98.79.776 0 1.38-.169 1.815-.505.432-.336.648-.787.648-1.35 0-.501-.178-.924-.535-1.266-.355-.343-.948-.661-1.775-.956-2.253-.806-3.379-1.988-3.379-3.542 0-1.016.395-1.849 1.185-2.497.787-.649 1.837-.973 3.15-.973 1.17 0 2.143.196 2.92.587l-.515 1.613c-.726-.378-1.546-.568-2.463-.568-.725 0-1.292.172-1.698.514-.343.305-.516.677-.516 1.118 0 .489.197.893.591 1.21.344.293.967.611 1.872.954 1.107.428 1.92.928 2.444 1.502.52.572.781 1.287.781 2.142zm6.816-3.96h-2.272v4.326c0 1.1.4 1.65 1.202 1.65.369 0 .674-.03.916-.092l.057 1.503c-.406.146-.94.22-1.603.22-.814 0-1.45-.24-1.91-.715-.457-.478-.687-1.278-.687-2.402V19.11h-1.354v-1.486h1.354v-1.63l2.025-.588v2.218h2.272v1.488zm10.252 2.897c0 1.369-.408 2.493-1.222 3.373-.854.905-1.987 1.356-3.4 1.356-1.361 0-2.445-.434-3.253-1.3-.809-.868-1.213-1.963-1.213-3.282 0-1.38.416-2.511 1.25-3.39.833-.88 1.956-1.32 3.37-1.32 1.36 0 2.456.433 3.283 1.301.79.842 1.185 1.93 1.185 3.262zm-2.139.064c0-.822-.182-1.527-.553-2.114-.432-.712-1.05-1.066-1.85-1.066-.83 0-1.459.355-1.89 1.066-.371.588-.554 1.304-.554 2.15 0 .822.183 1.527.553 2.114.446.711 1.069 1.066 1.872 1.066.787 0 1.405-.362 1.85-1.085.38-.599.572-1.31.572-2.131zm8.84-2.705a3.724 3.724 0 0 0-.65-.055c-.725 0-1.286.263-1.68.79-.343.464-.516 1.05-.516 1.759v4.674h-2.06l.02-6.103c0-1.027-.027-1.962-.078-2.805h1.795l.076 1.705h.057a3.051 3.051 0 0 1 1.03-1.411c.46-.319.956-.478 1.49-.478.191 0 .363.013.516.037v1.887zm9.22 2.292c0 .355-.024.654-.076.898h-6.184c.024.88.323 1.553.897 2.018.521.415 1.195.623 2.023.623.916 0 1.751-.14 2.502-.422l.323 1.374c-.878.368-1.914.55-3.11.55-1.44 0-2.568-.406-3.39-1.218-.82-.813-1.231-1.904-1.231-3.272 0-1.343.382-2.462 1.147-3.354.8-.953 1.882-1.43 3.244-1.43 1.337 0 2.35.477 3.037 1.43.544.756.818 1.692.818 2.803zm-1.966-.513c.014-.587-.12-1.094-.4-1.522-.357-.55-.905-.825-1.643-.825-.674 0-1.222.268-1.641.807-.343.428-.547.941-.61 1.54h4.294zM27.219 21.324c.026 2.958 2.71 3.936 2.742 3.947-.016.068-.42 1.41-1.426 2.774-.84 1.2-1.721 2.373-3.12 2.395-1.358.03-1.816-.764-3.374-.764-1.572 0-2.06.742-3.362.793-1.332.047-2.35-1.28-3.22-2.47-1.742-2.428-3.097-6.843-1.28-9.847.88-1.473 2.486-2.422 4.202-2.447 1.334-.026 2.571.86 3.39.86.804 0 2.335-1.06 3.912-.902.66.019 2.538.25 3.75 1.936-.098.056-2.238 1.257-2.214 3.725zm-2.496-7.189c-.736.903-1.913 1.593-3.06 1.504-.15-1.218.43-2.513 1.081-3.303.736-.896 2.013-1.583 3.034-1.63.134 1.266-.35 2.513-1.055 3.43z"/>
    </g>
</svg>
