<svg xmlns="http://www.w3.org/2000/svg" width="129" height="42" viewBox="0 0 129 42">
    <g fill="none" fill-rule="evenodd">
        <path fill="none" stroke="#000" d="M.5.5h127.658v41H.5z" opacity=".4"/>
        <path fill="#000" fill-rule="nonzero" d="M9.987 28.52V14.305c0-.496.295-.925.723-1.129l8.432 8.234-8.435 8.237a1.252 1.252 0 0 1-.72-1.127zm11.652-4.299l-9.155 5.426 7.22-7.412 1.935 1.986zm2.872-4.2c.277.226.457.58.457.98 0 .395-.174.745-.445.971L22.75 23.06l-1.943-2.06 1.941-2.058 1.764 1.08zm-12.027-6.845l9.155 5.426-1.935 1.986-7.22-7.412z"/>
        <path fill="#000" d="M44.71 25.59l-2.543.556c-1.03.156-1.955.292-2.935.292-4.905 0-6.774-3.453-6.774-6.156 0-3.3 2.648-6.36 7.183-6.36.96 0 1.883.134 2.724.353 1.332.359 1.956.8 2.345 1.059l-1.477 1.341-.623.134.444-.677c-.601-.562-1.707-1.599-3.805-1.599-2.806 0-4.922 2.04-4.922 5.018 0 3.198 2.417 6.207 6.292 6.207 1.14 0 1.725-.219 2.258-.423v-2.742l-2.685.138L41.615 22h3.768l-.46.424c-.125.101-.142.136-.177.271a11.63 11.63 0 0 0-.036.82v2.074zm5.832.629c-3.016 0-4.626-2.246-4.626-4.28 0-2.375 2.029-4.408 4.912-4.408 2.787 0 4.532 2.088 4.532 4.28 0 2.142-1.724 4.408-4.818 4.408zm2.373-1.468c.455-.58.569-1.305.569-2.012 0-1.598-.798-4.645-3.149-4.645-.628 0-1.25.234-1.706.615-.742.635-.874 1.433-.874 2.216 0 1.793.93 4.75 3.226 4.75.74 0 1.496-.344 1.934-.924zm7.722 1.468c-3.015 0-4.628-2.246-4.628-4.28 0-2.375 2.028-4.408 4.913-4.408 2.788 0 4.535 2.088 4.535 4.28 0 2.142-1.727 4.408-4.82 4.408zm2.372-1.468c.459-.58.57-1.305.57-2.012 0-1.598-.796-4.645-3.148-4.645-.626 0-1.256.234-1.71.615-.741.635-.873 1.433-.873 2.216 0 1.793.926 4.75 3.225 4.75.742 0 1.5-.344 1.936-.924zm9.388-6.33c.436.343 1.345 1.07 1.345 2.448 0 1.344-.792 1.977-1.59 2.577-.246.236-.532.492-.532.887 0 .402.286.62.493.782l.685.506c.833.673 1.592 1.29 1.592 2.542 0 1.706-1.727 3.427-4.99 3.427-2.748 0-4.077-1.252-4.077-2.594 0-.654.34-1.579 1.462-2.213 1.176-.687 2.769-.78 3.622-.833-.266-.33-.57-.674-.57-1.236 0-.308.096-.491.19-.707-.208.019-.417.038-.607.038-2.012 0-3.149-1.435-3.149-2.85 0-.834.398-1.76 1.215-2.431 1.082-.852 2.371-.999 3.396-.999h3.909l-1.215.656h-1.179zm-1.344 8.055c-.155-.02-.249-.02-.436-.02-.172 0-1.197.036-1.99.29-.42.148-1.634.581-1.634 1.87 0 1.286 1.31 2.214 3.337 2.214 1.821 0 2.788-.835 2.788-1.96 0-.925-.626-1.413-2.065-2.394zm.546-3.448c.438-.418.476-.997.476-1.325 0-1.305-.813-3.338-2.39-3.338-.492 0-1.024.236-1.327.601-.32.378-.417.869-.417 1.34 0 1.215.741 3.23 2.37 3.23.476 0 .988-.22 1.288-.508zm5.983 1.598c0 .705.131.814.755.87.325.036.648.052.969.089l-.702.4h-3.343c.439-.545.514-.599.514-.961v-.405l-.007-10.788h-1.476l1.42-.655h2.714c-.588.326-.764.525-.84 1.16l-.004 10.29zm9.323.14l-.907.819c-.21.11-.418.238-.626.329-.63.274-1.27.342-1.84.342-.606 0-1.556-.037-2.525-.708-1.347-.907-1.935-2.466-1.935-3.825 0-2.812 2.394-4.192 4.347-4.192.682 0 1.383.163 1.953.508.948.6 1.193 1.379 1.329 1.796l-4.46 1.723-1.46.108c.473 2.307 2.104 3.648 3.907 3.648.9 0 1.569-.28 2.182-.57 0 0 .123-.062.035.022zm-2.69-4.588c.362-.126.55-.234.55-.487 0-.725-.857-1.562-1.88-1.562-.757 0-2.18.565-2.18 2.525 0 .306.038.632.057.958l3.453-1.434zm8.158 4.665v4.622h-.96v-11.76h.96v1.34c.625-.866 1.767-1.552 3.094-1.552 2.38 0 3.982 1.727 3.982 4.46 0 2.714-1.603 4.477-3.982 4.477-1.252 0-2.374-.618-3.094-1.587zm6.045-2.89c0-2.06-1.123-3.631-3.113-3.631-1.236 0-2.418.929-2.932 1.74v3.763c.514.812 1.696 1.775 2.932 1.775 1.99 0 3.113-1.585 3.113-3.647zm2.341-7.494h.96v11.759h-.96v-11.76zm8.923 11.733a15.18 15.18 0 0 1-.148-.772 4.96 4.96 0 0 1-.046-.664c-.329.462-.795.847-1.39 1.15-.596.304-1.162.454-1.938.454-.935 0-1.66-.22-2.178-.667-.516-.445-.776-1.049-.776-1.813 0-.763.376-1.382 1.126-1.856.75-.476 1.719-.712 2.918-.712h2.238v-1.058c0-.61-.217-1.088-.65-1.435-.435-.348-1.046-.524-1.837-.524-.724 0-1.31.16-1.757.474-.443.319-.666.715-.666 1.192h-.982l-.02-.046c-.036-.643.271-1.207.925-1.694.651-.487 1.504-.732 2.553-.732 1.046 0 1.893.241 2.53.722.638.476.958 1.163.958 2.062v4.2a5.36 5.36 0 0 0 .246 1.72h-1.106zm-3.405-.668c.815 0 1.401-.175 2-.52.595-.342 1-.789 1.211-1.33V22.04h-2.248c-.86 0-1.57.182-2.13.549-.56.365-.844.808-.844 1.322 0 .486.18.874.538 1.168.358.297.848.445 1.473.445zm6.208 3.18c.205.088.555.142.777.142.587 0 .996-.23 1.363-1.04l.7-1.517-3.78-8.583h1.07l3.242 7.437 3.211-7.437h1.086l-4.61 10.384c-.479 1.07-1.231 1.584-2.265 1.584-.31 0-.72-.052-.959-.123l.165-.847z"/>
    </g>
</svg>
